<svg xmlns="http://www.w3.org/2000/svg" version="1.1" xmlns:xlink="http://www.w3.org/1999/xlink" xmlns:svgjs="http://svgjs.dev/svgjs" width="1000" height="796" viewBox="0 0 1000 796"><g transform="matrix(1,0,0,1,-0.4565375282135733,0.3228623114814013)"><svg viewBox="0 0 310 247" data-background-color="#ffffff" preserveAspectRatio="xMidYMid meet" height="796" width="1000" xmlns="http://www.w3.org/2000/svg" xmlns:xlink="http://www.w3.org/1999/xlink"><g id="tight-bounds" transform="matrix(1,0,0,1,0.1415407791157861,-0.09997365579206985)"><svg viewBox="0 0 309.71693258713793 247.2" height="247.2" width="309.71693258713793"><g><svg viewBox="0 0 309.71693258713793 247.2" height="247.2" width="309.71693258713793"><g><svg viewBox="0 0 309.71693258713793 247.2" height="247.2" width="309.71693258713793"><g id="textblocktransform"><svg viewBox="0 0 309.71693258713793 247.2" height="247.2" width="309.71693258713793" id="textblock"><g><svg viewBox="0 0 309.71693258713793 247.2" height="247.2" width="309.71693258713793"><path d="M308.992 53.02C307.536 27.36 303.386 20.227 303.386 20.227 290.646-6.202 274.746-0.506 260.462 3.292 235.243 3.446 210.126 9.091 184.966 12.119 132.155 12.581 78.893 4.986 26.344 23.717 21.408 29.464-5.121 24.846 0.878 56.304 2.451 69.39 8.187 83.913 8.013 95.922 8.799 98.026 9.891 93.202 10.357 96.23 11.988 104.39 14.652 100.541 16.836 105.365 13.793 118.246 15.977 128.971 18.059 140.21 14.39 143.135 9.687 141.749 7.576 151.449 7.357 158.479 6.178 157.145 4.882 156.837 3.936 156.632 2.028 157.402 2.349 159.608 3.441 167.152-1.248 171.514 1.693 178.904-0.331 186.91 3.091 193.838 2.625 202.511 2.567 204.255 2.887 205.744 3.397 206.154 5.654 208.361 2.363 212.672 2.713 217.342 25.864 249.262 50.981 227.195 74.699 241.872 80.859 231.608 76.228 245.516 78.689 243.36 80.611 240.846 82.009 251.263 84.178 245.362 84.513 243.668 84.004 239.665 85.198 240.435 85.824 240.846 86.377 240.743 86.464 238.382 86.595 234.841 85.445 237.048 85.139 235.201 88.445 225.861 87.629 248.081 90.731 247.158 90.585 244.438 89.682 240.538 91.531 241.051 93.366 237.151 93.424 233.918 95.055 242.693 95.113 244.592 95.404 245.926 95.87 246.85 100.967 237.305 106.034 250.237 111.377 245.926 114.653 241.205 117.798 248.492 121.118 246.696 122.283 245.259 123.462 242.693 124.584 247.004 138.314 247.928 152.947 244.079 165.964 247.158 200.749 241.41 237.922 249.518 274.6 241.923 283.249 238.998 292.233 234.841 300.663 231.506 300.663 231.506 307.492 222.371 307.492 181.316S308.948 145.393 309.167 112.703C309.385 80.013 310.404 78.679 308.948 53.02Z" opacity="1" fill="#f45d58" data-fill-palette-color="tertiary"></path><g transform="matrix(1,0,0,1,55.76832,26.230666666666668)"><svg width="198.18029258713793" viewBox="3 -33.95000076293945 34.54999923706055 33.95000076293945" height="194.73866666666666" data-palette-color="#ffffff"><path d="M28.1-13L22.5 0 18.3 0 12.65-12.85Q12.4-13.4 12.03-14.35 11.65-15.3 11.2-16.45 10.75-17.6 10.25-18.88 9.75-20.15 9.3-21.45L9.3-21.45Q9.3-20.15 9.28-18.88 9.25-17.6 9.2-16.48 9.15-15.35 9.13-14.48 9.1-13.6 9.1-13.1L9.1-13.1 8.6 0 3 0 5-33.95 9.65-33.95 18.2-12.75Q18.65-11.6 19.23-10.25 19.8-8.9 20.3-7.6L20.3-7.6Q20.8-8.9 21.35-10.23 21.9-11.55 22.4-12.75L22.4-12.75 31-33.95 35.55-33.95 37.55 0 32 0 31.45-12.95Q31.4-14.2 31.33-16.53 31.25-18.85 31.2-21.25L31.2-21.25Q30.75-20 30.28-18.75 29.8-17.5 29.4-16.4 29-15.3 28.65-14.4 28.3-13.5 28.1-13L28.1-13Z" opacity="1" transform="matrix(1,0,0,1,0,0)" fill="#ffffff" class="wordmark-text-0" data-fill-palette-color="quaternary" id="text-0"></path></svg></g></svg></g></svg></g></svg></g><g></g></svg></g><defs></defs></svg><rect width="309.71693258713793" height="247.2" fill="none" stroke="none" visibility="hidden"></rect></g></svg></g></svg>